<svg aria-hidden="true" style="position: absolute; width: 0; height: 0; overflow: hidden;" version="1.1" xmlns="http://www.w3.org/2000/svg" xmlns:xlink="http://www.w3.org/1999/xlink">
<defs>
<symbol id="icon-mrrobot" viewBox="0 0 162 32">
<path fill="#df2d2f" style="fill: var(--color1, #df2d2f)" d="M4.095 27.82c-0.022-0.058-0.031-5.416-0.019-11.907l0.021-11.801 2.618-0.023c2.961-0.026 3.443 0.024 4.332 0.449l0.6 0.288 1.104 1.124 0.935 1.849c0.533 1.055 0.977 1.837 1.033 1.821 0.054-0.015 0.472-0.778 0.929-1.696s0.999-1.885 1.203-2.15c0.658-0.852 1.641-1.445 2.69-1.624 0.306-0.052 1.565-0.078 3.129-0.063l2.618 0.024v23.768h-3.158l-0.083-20.444h-1.579l-0.374 0.194c-0.455 0.237-0.87 0.621-1.089 1.011-0.090 0.16-1.073 2.292-2.185 4.737s-2.065 4.446-2.118 4.446c-0.053 0-0.901-1.776-1.883-3.947s-1.933-4.253-2.112-4.627c-0.373-0.78-0.781-1.269-1.326-1.59l-0.381-0.224h-1.662l-0.083 20.444-3.12 0.045zM8.169 27.737c-0.025-0.104-0.035-4.527-0.023-9.829l0.023-9.64 0.207-0.029c0.353-0.050 0.73 0.223 0.95 0.686 0.252 0.534 2.107 4.53 3.86 8.318 1.518 3.279 1.471 3.188 1.58 3.074 0.064-0.067 1.604-3.363 3.455-7.396 0.168-0.366 0.683-1.48 1.146-2.477l0.84-1.812 0.493-0.415 0.517 0.050v19.613l-1.6 0.023c-0.88 0.012-1.605-0.006-1.61-0.042s-0.020-1.467-0.032-3.181c-0.027-3.949-0.024-3.873-0.12-3.777-0.043 0.043-0.751 1.593-1.572 3.442s-1.527 3.375-1.569 3.389c-0.042 0.014-0.743-1.481-1.558-3.322s-1.522-3.4-1.572-3.464l-0.091-0.117-0.083 7.048-3.196 0.045zM27.032 27.82c-0.022-0.058-0.031-3.565-0.019-7.793l0.021-7.687 11.152-0.083 0.137-0.114c0.168-0.14 0.173-0.262 0.019-0.473l-0.118-0.161-11.191-0.083-0.045-3.2 0.106-0.012c0.058-0.007 2.759-0.002 6.003 0.010l5.897 0.022 0.316 0.111c0.775 0.273 1.672 1.139 2.085 2.011l0.265 0.559v1.911l-0.265 0.559c-0.421 0.889-1.31 1.738-2.121 2.024l-0.352 0.124-8.405-0.008-0.284 0.21-0.042 12.133-3.12 0.045-0.040-0.106zM31.106 27.735c-0.025-0.103-0.035-2.674-0.022-5.713l0.023-5.526 4.903-0.044 2.805 5.611c1.543 3.086 2.805 5.667 2.805 5.735v0.125h-3.158l-1.973-3.948c-1.085-2.171-2.001-3.947-2.036-3.947s-0.063 1.717-0.063 3.816c0 2.099-0.023 3.875-0.050 3.947l-0.050 0.131h-3.137zM42.55 27.818c-0.177-0.214-5.655-11.267-5.607-11.315 0.027-0.027 0.333-0.050 0.68-0.051 0.989-0.003 1.74-0.14 2.334-0.428l0.54-0.262 1.337-1.344 0.258-0.54c0.316-0.662 0.441-1.235 0.441-2.023 0-1.246-0.44-2.249-1.409-3.213l-0.627-0.623-1.155-0.582-6.154-0.044c-3.385-0.024-6.164-0.052-6.177-0.062s-0.012-0.739 0-1.618l0.023-1.6h12.466l0.66 0.191c2.199 0.637 4.294 2.553 5.112 4.675 0.404 1.047 0.523 1.731 0.522 2.988l-0.002 1.122-0.169 0.812c-0.105 0.506-0.298 1.078-0.511 1.519l-0.342 0.707-0.558 0.593c-0.655 0.697-1.847 1.709-2.382 2.023-0.208 0.122-0.378 0.272-0.378 0.334s0.97 2.048 2.155 4.414c1.185 2.366 2.137 4.331 2.114 4.367s-0.726 0.066-1.563 0.066h-1.522l-0.087-0.104zM46.988 27.79c-0.028-0.072-0.050-0.894-0.050-1.825v-1.694l0.161-0.086c0.095-0.051 0.814-0.086 1.751-0.086s1.656 0.035 1.751 0.086l0.161 0.086v1.694c0 0.932-0.023 1.753-0.050 1.825l-0.050 0.131h-3.621zM60.366 27.85c-0.063-0.102-0.068-15.37-0.005-15.472 0.031-0.050 2.086-0.080 5.511-0.080h5.462l0.189-0.133c0.241-0.169 0.208-0.451-0.069-0.591l-0.208-0.105-10.928-0.003-0.006-0.27c-0.022-0.967 0.014-2.923 0.054-2.964 0.027-0.027 2.722-0.043 5.988-0.037l5.94 0.012 0.546 0.269c1.090 0.537 1.922 1.659 2.122 2.863l0.095 0.571-0.098 0.571c-0.203 1.182-1.058 2.318-2.121 2.815l-0.536 0.251-4.267-0.004c-2.347-0.002-4.314 0.026-4.371 0.063l-0.103 0.067-0.021 6.104-0.021 6.104-1.552 0.023c-0.865 0.013-1.573-0.011-1.599-0.053zM64.447 27.868c-0.031-0.031-0.057-2.613-0.057-5.736v-5.679h4.903l2.831 5.662c1.656 3.312 2.801 5.693 2.757 5.736-0.041 0.041-0.763 0.064-1.605 0.051l-1.531-0.023-1.962-3.902c-1.079-2.146-2.004-3.916-2.056-3.933l-0.094-0.031-0.043 7.867-1.543 0.023c-0.848 0.012-1.568-0.003-1.6-0.035zM74.725 25.657c-2.914-5.816-4.517-9.050-4.517-9.109 0-0.036 0.536-0.103 1.192-0.149l1.192-0.084 0.533-0.251c2.363-1.112 3.361-3.845 2.241-6.135-0.525-1.073-1.683-2.111-2.69-2.41l-0.412-0.122-5.88-0.011c-3.234-0.006-5.922-0.037-5.975-0.070l-0.095-0.059 0.045-3.146h12.466l0.535 0.152c1.235 0.35 2.232 0.952 3.308 1.996 1.133 1.1 1.813 2.218 2.185 3.597l0.177 0.654 0.087 2.161-0.134 0.816c-0.157 0.958-0.506 1.911-0.933 2.55-0.501 0.75-1.624 1.775-3.141 2.867l-0.231 0.166 2.172 4.347c1.194 2.391 2.15 4.382 2.123 4.425-0.027 0.044-0.713 0.078-1.581 0.078h-1.532zM86.787 27.865c-3.52-0.456-5.399-2.236-5.905-5.594l-0.119-0.79v-10.97l0.119-0.79c0.258-1.709 0.769-2.8 1.791-3.825l0.624-0.625 0.706-0.349c1.409-0.696 2.457-0.851 5.763-0.851h2.402l0.883 0.128c3.525 0.511 5.327 2.488 5.663 6.211 0.1 1.104 0.1 10.069 0 11.173-0.34 3.773-2.246 5.804-5.86 6.247-0.686 0.084-5.475 0.112-6.067 0.035zM93.111 24.413c0.662-0.256 0.998-0.469 1.378-0.876 0.467-0.5 0.694-0.928 0.857-1.617l0.123-0.522 0.002-10.754-0.092-0.44c-0.145-0.698-0.525-1.412-0.975-1.832-0.502-0.47-0.928-0.691-1.65-0.859l-0.56-0.13-5.408 0.059-0.416 0.15c-1.343 0.486-2.062 1.43-2.279 2.994-0.121 0.867-0.121 9.952 0 10.819 0.217 1.558 0.917 2.492 2.218 2.956l0.476 0.17 0.956 0.053c0.526 0.029 1.872 0.032 2.992 0.006l2.036-0.047 0.341-0.132zM87.66 23.801c-0.581-0.069-1.295-0.298-1.618-0.519-0.439-0.301-0.838-0.837-1.016-1.368l-0.145-0.433-0.053-10.216 0.090-0.58c0.204-1.313 0.841-2.043 2.075-2.375 0.486-0.131 3.902-0.192 4.908-0.088l0.783 0.081 1.062 0.539 0.284 0.371c0.156 0.204 0.359 0.618 0.45 0.92l0.166 0.548-0.046 10.966-0.191 0.472c-0.319 0.789-0.916 1.297-1.804 1.536l-0.416 0.112-2.119 0.034c-1.166 0.019-2.25 0.019-2.41 0zM91.199 20.251l0.2-0.233v-8.065l-0.486-0.486h-1.081c-1.148 0-1.445 0.060-1.584 0.321-0.057 0.106-0.089 1.56-0.093 4.197l-0.006 4.035 0.135 0.207c0.175 0.267 0.283 0.285 1.605 0.271l1.109-0.012 0.2-0.233zM101.284 24.592c0 0 3.277-0.005 4.915-0.013l4.689-0.023 1.146-0.543 0.683-0.684c1.038-1.039 1.411-1.921 1.401-3.307l-0.005-0.711-0.176-0.58c-0.235-0.775-0.688-1.451-1.431-2.138l-0.613-0.567 0.614-0.555c0.736-0.665 1.191-1.34 1.435-2.131l0.181-0.585-0.005-1.579-0.178-0.585c-0.098-0.322-0.323-0.808-0.5-1.080-0.448-0.69-1.346-1.503-2.006-1.816l-0.546-0.258-4.719-0.042-4.885-0.001c0 0-0.018-2.253 0-3.322l9.299-0.001 0.615 0.118c1.403 0.268 2.693 0.98 3.854 2.126 1.211 1.195 1.958 2.614 2.247 4.268l0.133 0.76-0.047 0.956c-0.058 1.173-0.291 2.154-0.723 3.048l-0.328 0.679 0.331 0.692c0.182 0.381 0.411 0.991 0.51 1.357l0.179 0.665 0.006 1.288 0.006 1.288-0.144 0.57c-0.383 1.522-1.106 2.755-2.275 3.882-0.9 0.867-2.39 1.827-3.487 2.103l-0.239 0.060c-3.312-0.036-6.624-0.016-9.936 0zM124.849 27.827c-0.876-0.111-1.749-0.372-2.535-0.757l-0.706-0.346-1.334-1.336-0.353-0.706c-0.194-0.389-0.454-1.080-0.577-1.537l-0.224-0.831-0.028-5.859c-0.034-7.050-0.003-7.404 0.788-9.054l0.377-0.785 1.364-1.361 0.705-0.341c1.422-0.688 2.464-0.841 5.721-0.841 2.582 0 3.501 0.078 4.556 0.383 2.415 0.7 3.753 2.243 4.307 4.968l0.137 0.674 0.023 5.153c0.024 5.528-0.026 6.88-0.298 7.956-0.679 2.687-2.578 4.254-5.607 4.625-0.875 0.107-5.466 0.105-6.316-0.003zM131.219 24.445c1.377-0.382 2.207-1.312 2.487-2.786 0.043-0.227 0.077-2.749 0.076-5.654l-0.001-5.245-0.118-0.555c-0.162-0.766-0.502-1.419-0.963-1.85-0.485-0.454-0.917-0.677-1.63-0.842l-0.556-0.129-5.415 0.053-0.482 0.181c-1.312 0.494-2.019 1.448-2.227 3.008-0.052 0.39-0.074 2.617-0.057 5.826l0.027 5.194 0.176 0.516c0.438 1.288 1.145 1.954 2.439 2.301l0.457 0.122 5.239 0.011 0.549-0.152zM125.648 23.747c-1.077-0.141-1.88-0.747-2.271-1.713l-0.19-0.469v-11.136l0.2-0.496c0.131-0.326 0.347-0.644 0.631-0.928l0.432-0.432 1.147-0.37 2.441 0.013c1.342 0.007 2.608 0.051 2.812 0.097 0.838 0.188 1.558 0.792 1.874 1.571l0.187 0.461v11.219l-0.317 0.913-0.945 0.945-1.148 0.336-2.161 0.029c-1.188 0.016-2.4-0.002-2.692-0.040zM129.47 20.28l0.245-0.245-0.046-8.167-0.48-0.413-2.402 0.053-0.15 0.186c-0.22 0.272-0.243 0.756-0.225 4.717l0.016 3.574 0.109 0.192c0.166 0.292 0.378 0.338 1.58 0.343l1.108 0.005zM144.484 27.901c-0.011-0.011-0.039-3.704-0.062-8.207l-0.043-8.186-5.651-0.083-0.023-1.531c-0.013-0.909 0.010-1.564 0.058-1.612 0.099-0.099 8.627-0.134 8.836-0.036l0.145 0.068v9.672c0 5.32-0.023 9.731-0.050 9.804l-0.050 0.131h-1.57c-0.864 0-1.579-0.009-1.59-0.021zM148.621 27.845c-0.027-0.044-0.050-4.464-0.051-9.822l-0.001-9.741 0.094-0.058c0.155-0.096 8.709-0.044 8.807 0.054 0.054 0.054 0.077 0.648 0.063 1.617l-0.023 1.531-5.651 0.083-0.083 16.372-1.552 0.023c-0.942 0.014-1.572-0.009-1.602-0.058zM101.284 23.802l0.007-3.634-0.007-3.715h9.275l0.57 0.239c1.145 0.48 1.952 1.669 2.137 2.86l0.087 0.558-0.087 0.558c-0.048 0.307-0.2 0.788-0.338 1.068-0.417 0.847-1.422 1.725-2.204 1.964l-0.334 0.102h-9.105zM109.766 20.418c0.136-0.069 0.208-0.175 0.208-0.308s-0.072-0.239-0.208-0.308l-0.208-0.105-5.61-0.003v0.36c0 0.198 0.025 0.385 0.055 0.416s1.293 0.055 2.805 0.054l2.749-0.001 0.208-0.105zM101.284 8.195c0 0 6.070 0.013 9.105 0.005l0.334 0.094c0.783 0.22 1.787 1.114 2.205 1.963 0.138 0.281 0.293 0.762 0.344 1.068l0.092 0.557-0.091 0.547c-0.203 1.225-1.018 2.316-2.143 2.87l-0.568 0.279-9.279-0.003zM109.766 12.19c0.136-0.069 0.208-0.175 0.208-0.308s-0.072-0.239-0.208-0.309l-0.208-0.106-5.568 0.040-0.027 0.278c-0.015 0.153-0.006 0.331 0.018 0.395l0.045 0.117 5.532-0.003 0.208-0.105zM138.777 7.28l-0.095-0.114 0.045-3.053h18.782l0.045 3.053-0.19 0.229h-18.493l-0.095-0.114z"></path>
</symbol>
</defs>
</svg>
